# xmcd
#
# Track frame offsets: 
#        150
#        38249
#        57613
#        80335
#        114452
#        153384
#        174811
#        217986
#
# Disc length: 3203 seconds
#
# Revision: 7
# Processed by: cddbd v1.5.2PL0 Copyright (c) Steve Scherf et al.
# Submitted via: ExactAudioCopyFreeDBPlugin 1.0
#
DISCID=600c8108
DTITLE=Franz Schubert - Schubertiade CD05 - Impromptus for piano, D899
DTITLE=and D935  (Edwin Fischer, piano)
DYEAR=1900
DGENRE=Classique
TTITLE0=Edwin Fischer - Four impromptus for piano, D899 - N°1  in C mi
TTITLE0=nor - Allegro molto moderato (1938)
TTITLE1=Edwin Fischer - Four impromptus for piano, D899 - N°2  in E fl
TTITLE1=at major - Allegro (1938)
TTITLE2=Edwin Fischer - Four impromptus for piano, D899 - N°3  in G fl
TTITLE2=at major - Andante (1938)
TTITLE3=Edwin Fischer - Four impromptus for piano, D899 - N°4  in A fl
TTITLE3=at major - Allegretto (1938)
TTITLE4=Edwin Fischer - Four impromptus for piano, D935 - N°1  in F mi
TTITLE4=nor - Allegro moderato (1938)
TTITLE5=Edwin Fischer - Four impromptus for piano, D935 - N°2  in A fl
TTITLE5=at major - Allegretto (1938)
TTITLE6=Edwin Fischer - Four impromptus for piano, D935 - N°3  in B fl
TTITLE6=at major - Andante (1938)
TTITLE7=Edwin Fischer - Four impromptus for piano, D935 - N°4  in F mi
TTITLE7=nor - Allegro Scherzando (1938)
EXTD=
EXTT0=
EXTT1=
EXTT2=
EXTT3=
EXTT4=
EXTT5=
EXTT6=
EXTT7=
PLAYORDER=
